<svg xmlns="http://www.w3.org/2000/svg" width="21" height="25" viewBox="0 0 21 25">
    <g fill="none" fill-rule="evenodd">
        <g transform="translate(4.62)">
            <ellipse cx="8.22" cy="8.419" rx="7.356" ry="7.54"/>
            <path fill="#CCA45C" fill-rule="nonzero" d="M8.214 16.783c-4.5 0-8.16-3.751-8.16-8.364 0-4.612 3.66-8.37 8.16-8.37s8.166 3.752 8.166 8.37c0 4.613-3.66 8.364-8.166 8.364zm0-15.073c-3.606 0-6.546 3.007-6.546 6.71 0 3.695 2.934 6.709 6.546 6.709s6.546-3.014 6.546-6.71c0-3.702-2.934-6.71-6.546-6.71z"/>
        </g>
        <path fill="#CCA45C" fill-rule="nonzero" d="M13.146 12.392h-2.142v-1.66h2.142a.734.734 0 0 0 .726-.744.732.732 0 0 0-.726-.738h-.612c-1.29 0-2.34-1.077-2.34-2.399s1.05-2.398 2.34-2.398h2.142v1.66h-2.142a.732.732 0 0 0-.726.738c0 .412.324.744.726.744h.612c1.29 0 2.34 1.076 2.34 2.399 0 1.316-1.05 2.398-2.34 2.398z"/>
        <path fill="#CCA45C" fill-rule="nonzero" d="M12.03 3.395h1.62v1.888h-1.62zM12.03 11.562h1.62v1.888h-1.62z"/>
        <path fill="#CCA45C" fill-rule="nonzero" d="M16.182 15.602v8.573H0V2.614h7.74l-1.314 1.66H1.62v18.247h12.948V15.96z"/>
        <path fill="#CCA45C" fill-rule="nonzero" d="M16.182 15.602v8.573H0V2.614h7.74l-1.314 1.66H1.62v18.247h12.948V15.96z"/>
        <path fill="#CCA45C" fill-rule="nonzero" d="M4.044 17.546h8.094v1.66H4.044zM9.708 15.885H4.044v-1.66H7.89M6.27 12.564H4.044V10.91h1.548"/>
    </g>
</svg>
