<?xml version="1.0" encoding="UTF-8"?>
<svg width="18px" height="20px" viewBox="0 0 18 20" version="1.1" xmlns="http://www.w3.org/2000/svg" xmlns:xlink="http://www.w3.org/1999/xlink">
    <!-- Generator: Sketch 51.1 (57501) - http://www.bohemiancoding.com/sketch -->
    <title>if_moneyreport_2423718</title>
    <desc>Created with Sketch.</desc>
    <defs></defs>
    <g id="Symbols" stroke="none" stroke-width="1" fill="none" fill-rule="evenodd">
        <g id="Desktop/Components/PDP-Add-to-bag-only-size" transform="translate(-5.000000, -507.000000)">
            <g id="if_moneyreport_2423718" transform="translate(5.000000, 507.000000)">
                <g id="Group" transform="translate(3.780000, 0.000000)">
                    <ellipse id="Oval" cx="6.72545455" cy="6.73541585" rx="6.01854545" ry="6.03186255"></ellipse>
                    <path d="M6.72054545,13.4265521 C3.03872727,13.4265521 0.0441818182,10.4253807 0.0441818182,6.73541585 C0.0441818182,3.045451 3.03872727,0.0393596251 6.72054545,0.0393596251 C10.4023636,0.0393596251 13.4018182,3.04053104 13.4018182,6.73541585 C13.4018182,10.4253807 10.4072727,13.4265521 6.72054545,13.4265521 Z M6.72054545,1.36774697 C3.77018182,1.36774697 1.36472727,3.77360406 1.36472727,6.73541585 C1.36472727,9.69230769 3.76527273,12.1030847 6.72054545,12.1030847 C9.67581818,12.1030847 12.0763636,9.69230769 12.0763636,6.73541585 C12.0763636,3.77360406 9.67581818,1.36774697 6.72054545,1.36774697 Z" id="Shape" fill="#999999" fill-rule="nonzero"></path>
                </g>
                <path d="M10.7558182,9.91370558 L9.00327273,9.91370558 L9.00327273,8.58531824 L10.7558182,8.58531824 C11.0847273,8.58531824 11.3498182,8.31964077 11.3498182,7.9900039 C11.3498182,7.665287 11.0847273,7.39960953 10.7558182,7.39960953 L10.2550909,7.39960953 C9.19963636,7.39960953 8.34054545,6.53861773 8.34054545,5.4808278 C8.34054545,4.42303788 9.19963636,3.56204608 10.2550909,3.56204608 L12.0076364,3.56204608 L12.0076364,4.89043342 L10.2550909,4.89043342 C9.92618182,4.89043342 9.66109091,5.15611089 9.66109091,5.4808278 C9.66109091,5.81046466 9.92618182,6.07614213 10.2550909,6.07614213 L10.7558182,6.07614213 C11.8112727,6.07614213 12.6703636,6.93713393 12.6703636,7.99492386 C12.6703636,9.04779383 11.8112727,9.91370558 10.7558182,9.91370558 Z" id="Shape" fill="#999999" fill-rule="nonzero"></path>
                <rect id="Rectangle-path" fill="#999999" fill-rule="nonzero" x="9.84272727" y="2.71581414" width="1.32545455" height="1.51042561"></rect>
                <rect id="Rectangle-path" fill="#999999" fill-rule="nonzero" x="9.84272727" y="9.24951191" width="1.32545455" height="1.51042561"></rect>
                <polygon id="Shape" fill="#999999" fill-rule="nonzero" points="13.2398182 12.4819211 13.2398182 19.3403358 0 19.3403358 0 2.09098009 6.33272727 2.09098009 5.25763636 3.41936743 1.32545455 3.41936743 1.32545455 18.0168684 11.9192727 18.0168684 11.9192727 12.7672784"></polygon>
                <polygon id="Shape" fill="#999999" fill-rule="nonzero" points="13.0909091 12.1698378 13.0909091 19.1463312 0 19.1463312 0 1.6 6.26150268 1.6 5.19850339 2.95125768 1.31054707 2.95125768 1.31054707 17.8000782 11.7852159 17.8000782 11.7852159 12.460108"></polygon>
                <rect id="Rectangle-path" fill="#999999" fill-rule="nonzero" x="3.30872727" y="14.0366263" width="6.62236364" height="1.32838735"></rect>
                <polyline id="Shape" fill="#999999" fill-rule="nonzero" points="7.94290909 12.708239 3.30872727 12.708239 3.30872727 11.3798516 6.45545455 11.3798516"></polyline>
                <polyline id="Shape" fill="#999999" fill-rule="nonzero" points="5.13 10.0514643 3.30872727 10.0514643 3.30872727 8.72799688 4.57527273 8.72799688"></polyline>
            </g>
        </g>
    </g>
</svg>