<?xml version="1.0" encoding="UTF-8"?>
<svg width="16px" height="16px" viewBox="0 0 16 16" version="1.1" xmlns="http://www.w3.org/2000/svg" xmlns:xlink="http://www.w3.org/1999/xlink">
    <!-- Generator: Sketch 51.1 (57501) - http://www.bohemiancoding.com/sketch -->
    <title>if_planet5_216521</title>
    <desc>Created with Sketch.</desc>
    <defs></defs>
    <g id="Symbols" stroke="none" stroke-width="1" fill="none" fill-rule="evenodd">
        <g id="Desktop/Components/PDP-Add-to-bag-only-size" transform="translate(-5.000000, -451.000000)" fill-rule="nonzero">
            <g id="if_planet5_216521" transform="translate(5.000000, 451.000000)">
                <path d="M7.99971766,0 C3.58905947,0 0,3.58862144 0,8 C0,12.4113786 3.58905947,16 7.99971766,16 C12.4109405,16 16,12.4119432 16,8 C16,3.58862144 12.4109405,0 7.99971766,0 Z M6.46154932,2.86412084 L6.83536263,2.97028305 L6.83536263,2.4784358 L6.98104817,2.3412155 L7.13689783,2.64389073 L7.43391565,3.00247053 L7.31364037,3.16736077 L6.83479795,3.27747582 L6.83479795,2.98609444 L6.46098465,3.27747582 L6.3525675,3.11202089 L6.46154932,2.86412084 Z M0.699629434,7.82155714 C0.73689783,6.27317004 1.2580907,4.84619185 2.11865184,3.67897226 C2.14745015,3.68292511 2.16777837,3.69026611 2.16777837,3.69026611 C2.16777837,3.80038117 2.01757544,3.82692172 2.16777837,4.10362109 C2.35976707,4.4616362 2.19488265,4.62709113 2.19488265,4.62709113 C2.19488265,4.62709113 1.72620434,4.9574363 1.64376213,5.01277617 C1.56131992,5.06755135 1.34109758,5.37079128 1.47831304,5.28778146 C1.61609317,5.20533635 1.78097759,5.12289123 1.64376213,5.34312134 C1.505982,5.56391614 1.2580907,5.92136656 1.20331745,6.05971624 C1.1485442,6.19806593 0.872983942,6.5278464 0.872983942,6.69330133 C0.872983942,6.85875626 0.762872772,7.18966613 0.790541733,7.32745112 C0.809175931,7.42288417 0.74762661,7.70579516 0.699629434,7.82155714 Z M3.54445033,12.4226724 L3.43377448,12.834898 L3.54445033,13.1652432 C3.54445033,13.1652432 3.37843656,13.3035929 3.26945474,13.3035929 C3.16781366,13.3035929 3.13336863,13.3674031 3.02212811,13.3380391 C1.97183695,12.3566034 1.20952885,11.0736218 0.879195341,9.6246206 C0.914769719,9.63365568 0.965590259,9.65963154 1.03730369,9.72287711 C1.14120346,9.81322792 1.20275278,9.85953272 1.34053291,9.91543728 C1.47774837,9.97134185 1.53308629,10.0526576 1.69853538,10.1351027 C1.86398447,10.2186772 1.80921122,10.1633373 2.02886889,10.4112374 C2.2496559,10.6585727 2.22198694,10.6585727 2.27676019,10.7963577 C2.33153344,10.9341427 2.41454032,11.0719277 2.46987824,11.1549375 C2.52521616,11.2379473 2.69010058,11.2927225 2.77254279,11.3480624 C2.854985,11.4028376 2.99276513,11.4581775 3.07520734,11.4581775 C3.15821422,11.4581775 3.40610552,11.7060775 3.54388565,11.7331827 C3.68166578,11.7614174 3.68166578,12.0369874 3.68166578,12.0369874 L3.54445033,12.4226724 Z M4.6461267,1.79064022 C4.28812423,2.17576057 4.37056644,2.06564551 4.28812423,2.17576057 C4.20568202,2.28587563 4.23278631,2.31298087 4.03966825,2.45133056 C3.84711488,2.58855086 3.76467267,2.75400579 3.76467267,2.75400579 L3.46144344,2.86412084 L3.21411682,2.75400579 C3.21411682,2.75400579 2.99276513,2.8370156 3.02043409,2.72633585 C3.02833951,2.69753653 3.03963296,2.66704313 3.05262043,2.63485565 C3.7268396,2.01256441 4.51568731,1.517329 5.38641256,1.1819016 C5.30058232,1.29201666 5.19668255,1.40495518 5.19668255,1.40495518 C5.19668255,1.40495518 5.00412917,1.40439048 4.6461267,1.79064022 Z M13.046762,11.6784076 C13.0179636,11.7879579 12.9643197,11.9810828 12.9366508,12.0911979 C12.9089818,12.2013129 12.7712017,12.4221077 12.6893242,12.4768829 C12.6068819,12.5322228 12.4685371,12.6976777 12.3866596,12.7253476 C12.3042174,12.7530176 12.2483148,12.5316581 12.2759838,12.4221077 C12.3047821,12.3108633 12.4414329,12.0087527 12.4414329,12.0087527 C12.4414329,12.0087527 12.4691018,11.8438625 12.4967708,11.7331827 C12.5250044,11.6241971 12.8553379,11.4858474 12.8553379,11.4858474 L13.0761249,11.0724924 C13.0761249,11.0724924 13.1037939,11.1831722 13.1037939,11.2656173 C13.1020999,11.3474977 13.0744309,11.5682925 13.046762,11.6784076 Z M13.1292042,9.08929202 C13.0738662,9.17173714 12.9084172,9.39140256 12.8259749,9.50151761 C12.7435327,9.61163267 12.6339862,9.7770876 12.4685371,9.91487259 C12.3030881,10.0526576 12.3019587,10.1893132 12.2206458,10.3011223 C12.1382036,10.4112374 12.0275278,10.6585727 12.0275278,10.6585727 C12.0275278,10.6585727 12.0828657,11.2102774 12.10997,11.3203925 C12.1382036,11.4305075 11.9174166,11.7326181 11.9174166,11.7326181 L11.6695253,11.9805181 L11.3374978,12.421543 L11.3640374,12.8337686 C11.3640374,12.8337686 11.1138874,13.0268935 10.9755426,13.1370085 C10.8388918,13.2471236 10.8603494,13.3295687 10.7502382,13.4402485 C10.6412564,13.5492341 10.348756,13.742359 10.2386448,13.7705936 C10.1290983,13.7982636 9.66098465,13.880144 9.66098465,13.880144 L9.66098465,13.6328086 L9.50852303,13.3572387 C9.50852303,13.3572387 9.35549674,13.0274582 9.27248985,12.9162137 C9.19004764,12.8066634 9.19061232,12.6406437 9.05283219,12.5034234 C8.91505206,12.3656385 8.84785601,12.2560881 8.82018705,12.1725136 C8.79195341,12.0900685 8.84051526,11.8427331 8.84051526,11.8427331 C8.84051526,11.8427331 8.94667373,11.5394932 9.00201165,11.4299428 C9.05734957,11.3198278 9.00031763,11.1543728 8.94441503,11.0436931 C8.88907711,10.9330133 8.86197283,10.6574434 8.86197283,10.5755629 C8.86197283,10.4936825 8.63949179,10.3542034 8.55761426,10.272323 C8.47517205,10.1893132 8.50227634,10.0791981 8.50227634,9.96964777 C8.50227634,9.85953272 8.41983413,9.61106797 8.44637374,9.4185078 C8.4740427,9.22594762 8.19904711,9.36260323 8.0341627,9.4185078 C7.86871361,9.47328298 7.75916711,9.36260323 7.75916711,9.1971483 C7.75916711,9.03282276 7.45650256,9.17060775 7.26338451,9.27959342 C7.06970178,9.38970848 6.85004412,9.38970848 6.62869243,9.4721536 C6.40903476,9.55459872 6.29948827,9.38970848 6.29948827,9.38970848 C6.29948827,9.38970848 6.10580554,9.22425355 5.96915476,9.14180843 C5.83080995,9.05936331 5.69302982,8.89447307 5.58235398,8.75668808 C5.47280748,8.61833839 5.19668255,8.20498341 5.17014293,8.04065787 C5.14247397,7.87463824 5.17014293,7.7639585 5.17014293,7.57139832 C5.17014293,7.37883814 5.17014293,7.26872309 5.19724722,7.1309381 C5.22491618,6.9931531 5.30735839,6.82769817 5.39036527,6.68991318 C5.47280748,6.55212819 5.7760367,6.38723795 5.85791424,6.33189807 C5.94035645,6.27712289 6.1334745,6.11223265 6.1334745,6.0015529 C6.1334745,5.89143785 6.24415034,5.83666267 6.29835892,5.72598292 C6.35426151,5.61586786 6.54681489,5.34086257 6.79470619,5.45097762 C6.79470619,5.45097762 7.01436386,5.42387238 7.09680607,5.39620244 C7.17924828,5.36853251 7.39947062,5.28665208 7.50845244,5.2313122 C7.61856361,5.17597233 7.89299453,5.14999647 7.89299453,5.14999647 C7.89299453,5.14999647 8.10982883,5.23639444 8.19227104,5.23639444 C8.27471325,5.23639444 8.54406211,5.18839557 8.54406211,5.18839557 C8.54406211,5.18839557 8.6682901,5.58763323 8.6682901,5.67064304 C8.6682901,5.75365286 8.75073231,5.83553328 8.88964179,5.89087316 C9.02629257,5.94564834 9.66041998,6.08343333 9.93654491,5.86320322 C10.0003529,5.81238089 10.2109758,5.94564834 10.2109758,5.94564834 C10.2109758,5.94564834 10.8993118,6.08343333 11.009423,6.16587845 C11.1200988,6.24888826 11.3126522,6.30422814 11.3679901,6.38723795 C11.4238927,6.46968307 11.6153167,6.71758312 11.642421,6.80002823 C11.6712193,6.88247335 11.8089995,7.18627797 11.8366684,7.29582833 C11.8643374,7.40594339 11.9462149,7.68151338 12.0286571,7.81929837 C12.1110993,7.95764806 12.5803423,8.56243383 12.7452268,8.8385685 L13.2421387,8.75612339 C13.23988,8.75894685 13.1845421,9.0068469 13.1292042,9.08929202 Z M15.1400035,8.04348133 C15.1128992,7.93280158 14.9474501,7.54711654 14.9474501,7.54711654 C14.9474501,7.54711654 14.7820011,7.32688643 14.6718899,7.27154655 C14.5623434,7.21620668 14.4793365,7.07842168 14.2862185,6.96887132 C14.0931004,6.85819157 14.0112229,6.80341639 13.8463385,6.80341639 C13.6803247,6.80341639 13.5160049,6.58262159 13.3223222,6.47250653 C13.1292042,6.36295617 13.1015352,6.41773135 13.1015352,6.41773135 C13.1015352,6.41773135 13.3223222,6.74807652 13.3223222,6.83052163 C13.3223222,6.91296675 13.5696488,7.05075175 13.8186695,6.99541187 C13.8186695,6.99541187 13.9835539,7.2986518 14.0659961,7.38109692 C14.1484383,7.46354203 14.0383272,7.54655185 13.8734427,7.6566669 C13.7079936,7.76621727 13.7362273,7.73911202 13.6520911,7.82155714 C13.5696488,7.90400226 13.2946533,8.04291664 13.2116464,8.09712713 C13.1292042,8.15190231 12.7988707,8.31735724 12.6345509,8.15190231 C12.553238,8.07228065 12.5780836,7.90456695 12.5244397,7.7938872 C12.4691018,7.68377215 11.890877,6.82995694 11.6153167,6.44483659 C11.5673196,6.37707348 11.4498677,6.16813722 11.3679901,6.11449142 C11.2855479,6.05858686 11.5616728,6.05858686 11.5616728,6.05858686 C11.5616728,6.05858686 11.5616728,5.86546199 11.5334392,5.72824169 C11.5057702,5.5904567 11.5616728,5.39789652 11.5616728,5.39789652 C11.5616728,5.39789652 11.2861126,5.56278676 11.202541,5.61812663 C11.1200988,5.67346651 11.0370919,5.50857627 10.9281101,5.37022658 C10.8179989,5.23300628 10.7073231,5.06698666 10.6802188,4.92920167 C10.6525499,4.79198137 10.8179989,4.73664149 10.8179989,4.73664149 L11.0653256,4.59942119 C11.0653256,4.59942119 11.3685548,4.54464601 11.5622375,4.57175125 C11.7547909,4.59942119 12.0574554,4.62709113 12.0574554,4.62709113 C12.0574554,4.62709113 12.1398977,4.43396626 12.0292218,4.35152114 C11.92024,4.26907602 11.6706547,4.13129103 11.5611082,4.15896097 C11.4515617,4.18606621 11.6158814,4.02117597 11.7530969,3.91106092 L11.4481736,3.85572104 C11.4481736,3.85572104 11.1709194,3.99350604 11.0873478,4.02117597 C11.0049056,4.04828122 10.8620434,4.10362109 10.7508029,4.24140608 C10.6418211,4.37919108 10.7948474,4.57175125 10.6847362,4.62709113 C10.5757544,4.682431 10.5006529,4.70953625 10.417646,4.73664149 C10.3352038,4.76431143 10.0737604,4.73664149 10.0737604,4.73664149 C9.78916534,4.73664149 9.97098994,4.99640008 10.0449621,5.08844498 L9.82473972,4.8196513 L9.66154932,4.43340157 C9.66154932,4.43340157 9.42664549,4.26851133 9.31709899,4.21373615 C9.20585848,4.15896097 8.86705488,3.9658361 8.86705488,3.9658361 L8.89020646,4.21373615 L9.20924651,4.53674031 L9.23748015,4.54408132 L9.43285689,4.76431143 L9.09518264,4.79198137 L9.09518264,4.57457472 C8.53050997,4.49100021 8.81058761,4.40516694 8.77218987,4.37862639 C8.69031233,4.3238512 8.48420681,4.18550152 8.48420681,4.18550152 C8.48420681,4.18550152 8.15217928,4.24084139 8.06973707,4.26851133 C7.98673019,4.29618127 7.96075525,4.37862639 7.79587083,4.43340157 C7.62985707,4.48874144 7.55306158,4.57118656 7.49828834,4.65363168 C7.44351509,4.7360768 7.26338451,4.98397685 7.15440268,5.0940919 C7.04372684,5.20477165 6.83705664,5.17653702 6.75461443,5.17653702 C6.67160755,5.17653702 6.27238398,5.06642197 6.27238398,5.06642197 L6.27238398,4.59942119 C6.27238398,4.59942119 6.3277219,4.33740383 6.30005294,4.25495871 L6.54229751,4.21430084 L6.94490912,4.13129103 L7.06349038,4.04828122 L7.23289218,3.8280511 C7.23289218,3.8280511 7.04259749,3.69026611 7.17981295,3.49770594 C7.24587965,3.40509635 7.48360685,3.38759088 7.59371802,3.30514576 C7.70326451,3.22270064 7.86984295,3.16736077 7.86984295,3.16736077 C7.86984295,3.16736077 8.062961,3.00247053 8.25551438,2.80934566 C8.25551438,2.80934566 8.39329451,2.72633585 8.55817893,2.67099598 C8.55817893,2.67099598 9.02685724,3.08435096 9.10986413,3.08435096 C9.19287101,3.08435096 9.49610023,2.89179078 9.49610023,2.89179078 C9.49610023,2.89179078 9.57854244,2.64445542 9.55143815,2.56144561 C9.52376919,2.47900049 9.38598906,2.20343051 9.38598906,2.20343051 C9.38598906,2.20343051 9.30354685,2.3412155 9.22166931,2.45133056 C9.1392271,2.56144561 9.08275984,2.69923061 9.08275984,2.69923061 C9.08275984,2.69923061 8.69652373,2.67269005 8.66998412,2.59024494 C8.64175049,2.50723512 8.58754191,2.37114421 8.55930828,2.28926378 C8.53276866,2.20625397 8.31198165,2.20907743 8.1476619,2.26441731 C7.98164814,2.31975718 8.17420152,1.967389 8.17420152,1.967389 C8.17420152,1.967389 8.34021528,1.75958213 8.44976178,1.75958213 C8.5587436,1.75958213 8.80832892,1.61840898 8.91731075,1.59130373 C9.02742192,1.5636338 9.35888477,1.35187407 9.49553556,1.35187407 C9.63331569,1.35187407 9.79876478,1.32589821 9.88233633,1.32589821 C9.96477854,1.32589821 10.2945474,1.32589821 10.2945474,1.32589821 L10.8722075,1.364862 C10.8722075,1.364862 11.3685548,1.59073904 11.2019764,1.70141879 C11.2019764,1.70141879 11.3962238,1.84259194 11.478666,1.92503706 C11.5560261,2.00296464 11.7553556,1.86405026 11.8699841,1.80023999 C13.9310394,3.09451542 15.3094053,5.38716736 15.3094053,7.99548246 C15.3094053,8.13552622 15.2969825,8.27500529 15.2890771,8.41335498 C15.2359979,8.2823463 15.1586377,8.11576198 15.1400035,8.04348133 Z" id="Shape" fill="#999999"></path>
                <polygon id="Shape" fill="#CCA45C" points="6.4 3.2 6.4 3.22457946 6.41404541 3.2070227"></polygon>
            </g>
        </g>
    </g>
</svg>