<?xml version="1.0" encoding="UTF-8"?>
<svg width="15px" height="15px" viewBox="0 0 15 15" version="1.1" xmlns="http://www.w3.org/2000/svg" xmlns:xlink="http://www.w3.org/1999/xlink">
    <!-- Generator: Sketch 51.1 (57501) - http://www.bohemiancoding.com/sketch -->
    <title>if_recycle_1608806</title>
    <desc>Created with Sketch.</desc>
    <defs></defs>
    <g id="Symbols" stroke="none" stroke-width="1" fill="none" fill-rule="evenodd">
        <g id="Desktop/Components/PDP-Add-to-bag-only-size" transform="translate(-5.000000, -481.000000)" fill="#999999" fill-rule="nonzero">
            <g id="if_recycle_1608806" transform="translate(5.000000, 481.000000)">
                <path d="M6.98863636,9.9657687 L6.86079545,13.1029825 L6.84375,13.2905333 L3.26420455,13.0433072 C3.05965909,13.0262571 2.86931818,12.9367442 2.69318182,12.7747685 C2.51704545,12.6127928 2.38352273,12.4266628 2.29261364,12.2163786 C2.23011364,12.0629279 2.18892045,11.9066355 2.16903409,11.7475015 C2.14914773,11.5883675 2.16051136,11.4036583 2.203125,11.1933741 C2.24573864,10.9830898 2.27982955,10.8267975 2.30539773,10.724497 C2.33096591,10.6221966 2.39204545,10.4403291 2.48863636,10.1788946 C2.58522727,9.91746015 2.63920455,9.76685116 2.65056818,9.72706765 C3.09375,9.79526795 4.53977273,9.87483496 6.98863636,9.9657687 Z M3.69034091,4.97009679 L5.22443182,8.20108596 L3.97159091,7.41678252 C3.61363636,7.82598431 3.296875,8.23660695 3.02130682,8.64865042 C2.74573864,9.06069389 2.53977273,9.41590379 2.40340909,9.71428009 C2.26704545,10.0126564 2.15482955,10.2811951 2.06676136,10.5198961 C1.97869318,10.7585972 1.92613636,10.937623 1.90909091,11.0569735 L1.875,11.2359993 L0.255681818,8.19256092 C0.159090909,8.04479361 0.107954545,7.88565958 0.102272727,7.71515883 C0.0965909091,7.54465808 0.113636364,7.41109916 0.153409091,7.31448207 L0.221590909,7.1610314 C0.420454545,6.80297983 0.744318182,6.26874415 1.19318182,5.55832437 L0,4.82517116 L3.69034091,4.97009679 Z M14.1818182,9.37754112 L12.5795455,12.4380295 C12.5113636,12.6028469 12.4076705,12.734985 12.2684659,12.8344438 C12.1292614,12.9339025 12.0056818,12.992157 11.8977273,13.009207 L11.7443182,13.0433072 C11.3409091,13.0830907 10.71875,13.1171908 9.87784091,13.1456076 L9.94602273,14.5437138 L7.98579545,11.4150251 L9.78409091,8.32896152 L9.84375,9.80379299 C10.8096591,9.89472672 11.6136364,9.90893511 12.2556818,9.84641817 C12.8977273,9.78390123 13.3806818,9.69012582 13.7045455,9.56509194 L14.1818182,9.37754112 Z M7.49147727,1.50040658 C7.22443182,1.85845815 6.47159091,3.09458857 5.23295455,5.20879784 L2.53125,3.61461585 L2.36931818,3.5123154 L4.28693182,0.477402093 C4.40056818,0.301217987 4.57102273,0.173342427 4.79829545,0.0937754112 C5.02556818,0.0142083956 5.25284091,-0.0142083956 5.48011364,0.00852503738 C5.61647727,0.0198917539 5.75426136,0.0539919034 5.89346591,0.110825486 C6.03267045,0.167659068 6.15198864,0.22733433 6.25142045,0.289851271 C6.35085227,0.352368212 6.46875,0.446143623 6.60511364,0.571177504 C6.74147727,0.696211386 6.84375,0.794249316 6.91193182,0.865291294 C6.98011364,0.936333272 7.08238636,1.0485796 7.21875,1.20203027 C7.35511364,1.35548094 7.44602273,1.45493971 7.49147727,1.50040658 Z M13.0738636,4.11759305 L14.8806818,7.21218162 C14.9829545,7.42246588 15.0184659,7.63843349 14.9872159,7.86008446 C14.9559659,8.08173544 14.8778409,8.29201969 14.7528409,8.49093723 C14.6789773,8.60460439 14.5852273,8.70974652 14.4715909,8.80636361 C14.3579545,8.9029807 14.25,8.98254772 14.1477273,9.04506466 C14.0454545,9.1075816 13.9076705,9.17009854 13.734375,9.23261548 C13.5610795,9.29513242 13.4275568,9.34059929 13.3338068,9.36901608 C13.2400568,9.39743287 13.09375,9.43721638 12.8948864,9.4883666 C12.6960227,9.53951683 12.5653409,9.57361698 12.5028409,9.59066705 C12.3096591,9.18146526 11.5568182,7.94249316 10.2443182,5.87375075 L12.9119318,4.21136847 L13.0738636,4.11759305 Z M11.8551136,2.19093461 L13.0653409,1.4833565 L11.1903409,4.66319545 L7.61931818,4.4926947 L8.90625,3.75954148 C8.71306818,3.2537226 8.5,2.78200386 8.26704545,2.34438528 C8.03409091,1.90676669 7.81960227,1.55581932 7.62357955,1.29154316 C7.42755682,1.027267 7.24431818,0.799932674 7.07386364,0.609540173 C6.90340909,0.419147671 6.76988636,0.287009592 6.67329545,0.213125934 L6.52840909,0.102300449 L9.98011364,0.110825486 C10.15625,0.0937754112 10.3210227,0.123613042 10.4744318,0.200338378 C10.6278409,0.277063715 10.7386364,0.35805157 10.8068182,0.443301944 L10.9005682,0.571177504 C11.1221591,0.917862358 11.4403409,1.45778139 11.8551136,2.19093461 Z" id="Shape"></path>
            </g>
        </g>
    </g>
</svg>