<svg xmlns="http://www.w3.org/2000/svg" width="17" height="17" viewBox="0 0 17 17">
    <path fill="#CCA45C" fill-rule="nonzero" d="M7.92 11.295l-.144 3.555-.02.213-4.057-.28a1.079 1.079 0 0 1-.647-.305c-.2-.184-.35-.394-.454-.633a2.091 2.091 0 0 1-.14-.531c-.022-.18-.01-.39.039-.628.048-.238.087-.416.116-.532a7.13 7.13 0 0 1 .207-.618c.11-.296.171-.467.184-.512.502.077 2.141.167 4.916.27zM4.182 5.633l1.739 3.662-1.42-.89c-.406.464-.765.93-1.077 1.397a8.96 8.96 0 0 0-.7 1.208c-.155.338-.282.642-.382.913-.1.27-.159.473-.178.608l-.039.203L.29 9.284a1.036 1.036 0 0 1-.174-.54 1.126 1.126 0 0 1 .058-.454l.077-.174c.226-.406.593-1.011 1.101-1.817L0 5.47l4.182.164zm11.89 4.995l-1.815 3.468a1.017 1.017 0 0 1-.353.45 1.036 1.036 0 0 1-.42.198l-.174.038c-.457.046-1.162.084-2.115.116l.077 1.585-2.221-3.546 2.038-3.498.067 1.672c1.095.103 2.006.12 2.734.048.727-.07 1.275-.177 1.642-.319l.54-.212zM8.49 1.7c-.302.406-1.156 1.807-2.56 4.203L2.87 4.097l-.184-.116L4.86.54c.128-.2.321-.345.58-.435.257-.09.514-.122.772-.096.154.013.31.051.468.116.158.064.293.132.406.202.113.071.246.178.4.32.155.141.271.252.349.333.077.08.193.207.347.381a10 10 0 0 0 .31.338zm6.327 2.967l2.048 3.507c.116.238.156.483.12.734-.035.251-.123.49-.265.715-.084.129-.19.248-.319.358-.129.109-.251.2-.367.27-.116.07-.272.142-.468.213-.197.07-.348.122-.454.154-.107.032-.272.078-.498.135l-.444.116c-.22-.463-1.072-1.868-2.56-4.212l3.024-1.884.183-.106zm-1.381-2.184l1.371-.802-2.125 3.604-4.047-.193 1.459-.831a14.169 14.169 0 0 0-.725-1.604 9.68 9.68 0 0 0-.729-1.193c-.222-.3-.43-.557-.623-.773a3.77 3.77 0 0 0-.454-.45L7.4.117l3.912.01c.2-.02.386.014.56.101.174.087.3.179.377.275l.106.145c.251.393.612 1.005 1.082 1.836z"/>
</svg>
