<?xml version="1.0" encoding="UTF-8"?>
<svg width="19px" height="13px" viewBox="0 0 19 13" version="1.1" xmlns="http://www.w3.org/2000/svg" xmlns:xlink="http://www.w3.org/1999/xlink">
    <!-- Generator: Sketch 51.1 (57501) - http://www.bohemiancoding.com/sketch -->
    <title>if_ic_local_shipping_48px_352516</title>
    <desc>Created with Sketch.</desc>
    <defs></defs>
    <g id="Symbols" stroke="none" stroke-width="1" fill="none" fill-rule="evenodd">
        <g id="Desktop/Components/PDP-Add-to-bag-only-size" transform="translate(-5.000000, -425.000000)">
            <g id="if_ic_local_shipping_48px_352516" transform="translate(5.000000, 422.000000)">
                <polygon id="Shape" points="0 0 19 0 19 19 0 19"></polygon>
                <path d="M15.8333333,6.33333333 L13.4583333,6.33333333 L13.4583333,3.16666667 L2.375,3.16666667 C1.50020833,3.16666667 0.791666667,3.87520833 0.791666667,4.75 L0.791666667,13.4583333 L2.375,13.4583333 C2.375,14.7685417 3.43979167,15.8333333 4.75,15.8333333 C6.06020833,15.8333333 7.125,14.7685417 7.125,13.4583333 L11.875,13.4583333 C11.875,14.7685417 12.9397917,15.8333333 14.25,15.8333333 C15.5602083,15.8333333 16.625,14.7685417 16.625,13.4583333 L18.2083333,13.4583333 L18.2083333,9.5 L15.8333333,6.33333333 Z M4.75,14.6458333 C4.09291667,14.6458333 3.5625,14.1154167 3.5625,13.4583333 C3.5625,12.80125 4.09291667,12.2708333 4.75,12.2708333 C5.40708333,12.2708333 5.9375,12.80125 5.9375,13.4583333 C5.9375,14.1154167 5.40708333,14.6458333 4.75,14.6458333 Z M15.4375,7.52083333 L16.993125,9.5 L13.4583333,9.5 L13.4583333,7.52083333 L15.4375,7.52083333 Z M14.25,14.6458333 C13.5929167,14.6458333 13.0625,14.1154167 13.0625,13.4583333 C13.0625,12.80125 13.5929167,12.2708333 14.25,12.2708333 C14.9070833,12.2708333 15.4375,12.80125 15.4375,13.4583333 C15.4375,14.1154167 14.9070833,14.6458333 14.25,14.6458333 Z" id="Shape" fill="#999999" fill-rule="nonzero"></path>
            </g>
        </g>
    </g>
</svg>